<!DOCTYPE svg PUBLIC "-//W3C//DTD SVG 1.1//EN" "http://www.w3.org/Graphics/SVG/1.1/DTD/svg11.dtd">
<!-- Uploaded to: SVG Repo, www.svgrepo.com, Transformed by: SVG Repo Mixer Tools -->
<svg height="800px" width="800px" version="1.1" id="Capa_1" xmlns="http://www.w3.org/2000/svg" xmlns:xlink="http://www.w3.org/1999/xlink" viewBox="0 0 26 26" xml:space="preserve" fill="#000000">
<g id="SVGRepo_bgCarrier" stroke-width="0"/>
<g id="SVGRepo_tracerCarrier" stroke-linecap="round" stroke-linejoin="round"/>
<g id="SVGRepo_iconCarrier"> <g> <path style="fill:#ffffff;" d="M22.266,4.207c-0.244-0.24-0.494-0.484-0.74-0.732c-0.248-0.246-0.492-0.496-0.732-0.74 C19.082,0.988,18.063,0,17,0H9.046c-2.205,0-4,1.795-4,4v7.2h1.923V3.988c0-1.104,0.896-2,2-2l7.327-0.004 c0.721,0.184,0.711,1.07,0.711,1.957v3.047c0,0.551,0.449,1,1,1h3c0.998,0,2,0.005,2,1V22c0,1.104-0.896,2-2,2H8.969 c-1.104,0-2-0.896-2-2v-3.2H5.021V22c0,2.205,1.795,4,4,4H21c2.205,0,4-1.795,4-4V8C25,6.938,24.012,5.918,22.266,4.207z"/> <g> <path style="fill:#ffffff;" d="M4.814,13.262c-0.164,0-0.284,0.011-0.364,0.023v3.46c0.077,0.005,0.168,0.005,0.242,0.005 c0,0,0,0,0.001,0c0.505,0,0.885-0.146,1.148-0.438C6.128,16,6.27,15.53,6.27,14.915C6.27,13.849,5.753,13.262,4.814,13.262z"/> <path style="fill:#ffffff;" d="M18,11H2c-0.551,0-1,0.449-1,1v6c0,0.551,0.449,1,1,1h16c0.551,0,1-0.449,1-1v-6 C19,11.449,18.551,11,18,11z M6.917,17.296c-0.549,0.51-1.401,0.779-2.467,0.779c-0.629,0-1.069-0.047-1.329-0.088 c-0.078-0.011-0.137-0.077-0.137-0.156v-5.592c0-0.076,0.057-0.143,0.132-0.156c0.463-0.082,1.024-0.128,1.576-0.128 c0.986,0,1.662,0.2,2.194,0.646c0.601,0.5,0.918,1.284,0.918,2.271C7.805,16.168,7.321,16.905,6.917,17.296z M12.488,17.856 c0,0.09-0.071,0.159-0.159,0.159H9.156c-0.088,0-0.16-0.069-0.16-0.159v-5.699c0-0.089,0.072-0.16,0.16-0.16h1.148 c0.086,0,0.158,0.071,0.158,0.16v4.458h1.866c0.088,0,0.159,0.072,0.159,0.159L12.488,17.856L12.488,17.856z M17.488,17.856 c0,0.09-0.071,0.159-0.16,0.159h-3.172c-0.087,0-0.158-0.069-0.158-0.159v-5.699c0-0.089,0.071-0.16,0.158-0.16h1.147 c0.088,0,0.159,0.071,0.159,0.16v4.458h1.865c0.089,0,0.16,0.072,0.16,0.159L17.488,17.856L17.488,17.856z"/> </g> </g> </g>
</svg>