 <svg  version="1.0" xmlns="http://www.w3.org/2000/svg"  width="300.000000pt" height="302.000000pt" viewBox="0 0 300.000000 302.000000"  preserveAspectRatio="xMidYMid meet">  <g transform="translate(0.000000,302.000000) scale(0.100000,-0.100000)" fill="#ffffff" stroke="none"> <path d="M1435 3008 c-11 -6 -47 -32 -80 -58 -87 -67 -513 -393 -705 -540 -91 -70 -266 -204 -390 -298 -124 -95 -233 -185 -242 -200 -30 -46 -22 -111 32 -281 60 -191 391 -1258 432 -1396 46 -155 64 -189 107 -213 l39 -22 866 0 c723 0 872 2 900 14 47 19 76 75 124 231 55 177 200 647 257 830 168 540 225 730 225 751 0 58 -32 105 -114 169 -44 35 -82 63 -83 61 -3 -3 -59 -182 -144 -466 -23 -74 -49 -160 -58 -190 -10 -30 -85 -273 -167 -539 -82 -267 -158 -498 -169 -515 -39 -58 -10 -56 -782 -53 l-713 2 -26 26 c-18 18 -37 61 -59 135 -82 267 -320 1040 -353 1144 -47 147 -50 221 -11 253 25 21 310 239 604 463 77 59 187 143 245 187 58 45 152 117 210 161 237 180 310 238 310 244 -1 10 -89 76 -127 96 -37 19 -99 21 -128 4z"/> <path d="M1415 2373 c-33 -25 -181 -139 -330 -252 -148 -114 -317 -243 -373 -286 -57 -43 -108 -90 -114 -104 -8 -21 -3 -50 22 -136 17 -60 33 -112 35 -114 2 -2 15 5 29 15 60 47 619 485 688 541 116 93 122 97 150 82 12 -7 83 -60 158 -119 74 -58 198 -155 275 -214 159 -123 175 -139 175 -172 0 -13 -21 -93 -46 -177 -25 -83 -74 -248 -109 -365 -35 -118 -71 -222 -81 -233 -16 -18 -38 -19 -520 -19 -277 0 -505 -3 -507 -7 -2 -5 9 -50 25 -101 45 -143 -8 -132 610 -132 304 0 527 4 542 10 35 13 54 46 86 152 15 51 81 262 145 468 159 508 153 482 133 522 -11 23 -82 84 -238 203 -122 94 -314 241 -427 328 -239 183 -235 182 -328 110z"/> </g> </svg> 