<!DOCTYPE svg PUBLIC "-//W3C//DTD SVG 1.1//EN" "http://www.w3.org/Graphics/SVG/1.1/DTD/svg11.dtd">
<!-- Uploaded to: SVG Repo, www.svgrepo.com, Transformed by: SVG Repo Mixer Tools -->
<svg fill="#000000" width="800px" height="800px" viewBox="0 0 24 24" id="trophy-3" data-name="Line Color" xmlns="http://www.w3.org/2000/svg" class="icon line-color">
<g id="SVGRepo_bgCarrier" stroke-width="0"/>
<g id="SVGRepo_tracerCarrier" stroke-linecap="round" stroke-linejoin="round"/>
<g id="SVGRepo_iconCarrier">
<path id="secondary" d="M17,6h1a4,4,0,0,1,4,4v0a0,0,0,0,1,0,0H16a0,0,0,0,1,0,0V7A1,1,0,0,1,17,6Z" transform="translate(27 -11) rotate(90)" style="fill: none; stroke: #ffffff; stroke-linecap: round; stroke-linejoin: round; stroke-width: 2;"/>
<path id="secondary-2" data-name="secondary" d="M3,5H3A4,4,0,0,1,7,9v1a1,1,0,0,1-1,1H3a0,0,0,0,1,0,0V5A0,0,0,0,1,3,5Z" transform="translate(10 16) rotate(180)" style="fill: none; stroke: #ffffff; stroke-linecap: round; stroke-linejoin: round; stroke-width: 2;"/>
<path id="primary" d="M14,15.58A6.73,6.73,0,0,0,17,21H7a6.73,6.73,0,0,0,3-5.42" style="fill: none; stroke: #ffffff; stroke-linecap: round; stroke-linejoin: round; stroke-width: 2;"/>
<path id="primary-2" data-name="primary" d="M12,16h0a5,5,0,0,1-5-5V3H17v8A5,5,0,0,1,12,16Zm6,5H6" style="fill: none; stroke: #ffffff; stroke-linecap: round; stroke-linejoin: round; stroke-width: 2;"/>
</g>
</svg>